# xmcd
#
# Track frame offsets:
#	150
#	16240
#	35636
#	51425
#
# Disc length: 940 seconds
#
# Revision: 0
# Processed by: cddbd v1.5.2PL0 Copyright (c) Steve Scherf et al.
# Submitted via: dBpowerAMP V4.0
#
DISCID=2e03aa04
DTITLE=Tohoshinki - Trick03-If
DYEAR=2008
DGENRE=JPop
TTITLE0=If
TTITLE1=Rainy Night
TTITLE2=If(less vocal)
TTITLE3=Rainy Night(less vocal)
EXTD=
EXTT0=
EXTT1=
EXTT2=
EXTT3=
PLAYORDER=
